<svg width="67" height="70" viewBox="0 0 67 70" fill="none" xmlns="http://www.w3.org/2000/svg">
<circle cx="33.5" cy="36.5" r="33.5" fill="#E66D19"/>
<g clip-path="url(#clip0_2020_17)">
<path d="M49.3717 53.4949C54.3829 55.085 56.4051 58.6105 55.3974 64.2801C53.68 57.9406 50.9981 55.9148 49.3717 53.4949Z" fill="#2C2E78"/>
<path d="M41.0939 53.6107C44.4378 57.7343 44.2376 61.8138 40.3501 65.9976C42.3177 59.7346 41.1576 56.5452 41.0939 53.6107Z" fill="#2C2E78"/>
<path d="M53.2455 47.2157C51.0732 47.0186 53.0499 45.4378 55.6499 45.5978C58.1908 45.7554 67.8312 47.1554 65.6952 49.4942C64.2735 51.0495 62.8472 48.9865 59.3691 47.7117C55.8888 46.4392 54.9539 47.3733 53.2455 47.2157Z" fill="#2C2E78"/>
<path d="M27.0451 11.462C28.41 6.98153 26.9723 3.19871 22.5684 0C26.0966 5.50039 26.1762 8.70373 27.0451 11.462Z" fill="#2C2E78"/>
<path d="M22.9005 16.9856C21.6995 11.8978 18.7901 9.2415 13.9949 9.0097C19.2792 11.965 20.9102 14.9343 22.9005 16.9856Z" fill="#2C2E78"/>
<path d="M62.6357 7.85077C62.6266 8.76403 62.1898 9.50112 61.7189 10.171C61.032 11.1468 60.2563 12.0601 59.4806 12.9641C58.0976 14.5773 56.6781 16.1581 55.2883 17.7644C53.7096 19.5933 52.0922 21.392 50.5886 23.2834C48.3958 26.044 46.2007 28.8116 44.1739 31.6997C41.7103 35.209 39.3651 38.8064 37.079 42.4385C35.1978 45.4263 33.4667 48.5138 31.6947 51.5734C30.894 52.9572 29.793 53.8959 28.2143 54.13C26.97 54.3155 25.8827 53.8681 25.0888 52.9016C24.6089 52.3151 24.2654 51.6012 23.9287 50.9082C22.8187 48.6204 21.8178 46.2747 20.6326 44.0286C19.0881 41.1011 17.2251 38.3753 15.0459 35.8881C14.3953 35.1464 13.656 34.4835 12.9918 33.7534C12.712 33.4474 12.5004 33.0696 12.298 32.6987C11.7225 31.6417 12.0364 30.6729 12.6665 29.7781C13.2056 29.0109 14.1246 28.7907 15.1232 29.1036C16.1787 29.4351 17.0454 30.0934 17.9029 30.7679C20.6531 32.9259 22.9529 35.5242 25.0206 38.3474C25.9077 39.5597 26.7517 40.8021 27.6047 42.0399C28.0369 42.668 28.0369 42.6726 28.4736 42.0654C30.3594 39.4322 32.1837 36.7504 34.1514 34.1822C36.6764 30.8861 39.2764 27.6457 41.9264 24.4493C43.7735 22.2195 45.7139 20.0661 47.6906 17.9522C50.8093 14.6144 53.9803 11.3276 57.1581 8.04779C57.9451 7.23421 58.83 6.51798 59.8946 6.07757C60.8887 5.66499 61.9441 5.97559 62.39 6.88884C62.5333 7.17858 62.5583 7.52858 62.6357 7.85077Z" fill="#2C2E78"/>
</g>
<defs>
<clipPath id="clip0_2020_17">
<rect width="54" height="66" fill="white" transform="translate(12)"/>
</clipPath>
</defs>
</svg>
