<svg width="49" height="53" viewBox="0 0 49 53" fill="none" xmlns="http://www.w3.org/2000/svg">
<g clip-path="url(#clip0_8_161)">
<path d="M48.9107 26.5938C48.9107 25.5709 48.912 24.5493 48.9107 23.5264C48.9039 20.635 48.344 17.864 47.273 15.2188C45.2552 10.2301 41.9555 6.47134 37.6158 3.74226C34.5716 1.82906 31.2827 0.683032 27.7841 0.218939C25.2444 -0.117969 22.7128 -0.0679063 20.1893 0.365067C17.4751 0.831867 14.8853 1.72487 12.4443 3.08603C8.16816 5.4728 4.77239 8.8527 2.45986 13.4273C0.880305 16.5502 0.0431954 19.8976 0.00532938 23.4547C-0.0176607 25.6385 0.0337289 27.8237 0.056719 30.0075C0.0824138 32.493 0.492179 34.9028 1.33199 37.2206C3.13333 42.1917 6.25187 45.9842 10.4374 48.7661C15.7887 52.3219 21.6295 53.5491 27.8531 52.7833C30.9094 52.4071 33.8183 51.4735 36.5636 49.9784C40.5883 47.7878 43.861 44.7029 46.1857 40.5139C47.7179 37.7523 48.6551 34.7689 48.862 31.5554C48.9688 29.9074 48.958 28.2499 48.9999 26.5965C48.9702 26.5951 48.9404 26.5951 48.9107 26.5938ZM42.9387 40.6018C40.1771 44.6393 36.5041 47.3048 32.1117 48.8621C29.2257 49.885 26.2587 50.2788 23.224 50.1097C19.5794 49.9067 16.1376 48.9176 12.9379 47.022C9.25546 44.8409 6.36682 41.8101 4.47352 37.7374C4.43295 37.6495 4.39914 37.5561 4.36128 37.4628C9.60572 44.2929 16.3973 47.6701 24.5642 47.6458C32.7256 47.6214 39.4956 44.2077 44.7224 37.3288C44.218 38.5127 43.6297 39.5911 42.9387 40.6018ZM43.0658 34.8095C40.4963 38.8266 36.9775 41.5503 32.7473 43.2348C29.5327 44.5148 26.2019 45.0114 22.7885 44.7286C16.9693 44.2442 11.9142 41.9035 7.83819 37.3423C5.22814 34.4225 3.52958 30.9628 2.91966 26.9496C2.14476 21.8433 3.17661 17.1428 5.88944 12.8861C8.33586 9.04754 11.66 6.37528 15.6562 4.65286C18.4867 3.43241 21.4389 2.86414 25.0321 2.85331C29.695 2.91284 34.4513 4.46478 38.6219 7.87445C42.134 10.7456 44.6129 14.4232 45.7232 19.0492C47.0863 24.7212 46.1424 29.998 43.0658 34.8095Z" fill="#2F2483"/>
<path d="M26.0383 8.10608C26.6942 7.89771 27.0742 7.22254 26.9633 6.54196C26.843 5.80455 26.2506 5.28499 25.4649 5.32964C24.2424 5.4 23.0117 5.45141 21.8068 5.6449C17.605 6.31736 13.8766 8.03707 10.7526 10.9502C7.18508 14.276 5.21064 18.3567 5.12409 23.2831C5.12409 23.5998 5.11462 23.915 5.12544 24.2303C5.15384 25.0678 5.82326 25.6956 6.63197 25.651C7.44338 25.6063 8.04924 24.9163 8.00055 24.0882C7.90318 22.4077 8.12903 20.7678 8.67132 19.178C9.80325 15.8577 11.9332 13.3112 14.8178 11.3791C17.9593 9.27511 21.4525 8.28739 25.2161 8.20079C25.492 8.19538 25.78 8.18861 26.0383 8.10608Z" fill="#2F2483"/>
<path d="M35.6955 17.3365C35.0247 16.1053 34.0727 15.1338 32.865 14.4505C31.6668 13.7713 30.2496 13.4276 28.6565 13.4276H19.1602C18.791 13.4276 18.4908 13.7266 18.4908 14.0973V25.1733H16.2418C15.8726 25.1733 15.5724 25.4724 15.5724 25.8431V29.1175C15.5724 29.4868 15.8713 29.7872 16.2418 29.7872H18.4908V30.9968H16.2418C15.8726 30.9968 15.5724 31.2959 15.5724 31.6666V34.9409C15.5724 35.3103 15.8713 35.6107 16.2418 35.6107H18.4908V38.6375C18.4908 39.0068 18.7897 39.3072 19.1602 39.3072H22.6006C22.9698 39.3072 23.27 39.0082 23.27 38.6375V35.6107H27.5435C27.9127 35.6107 28.2129 35.3117 28.2129 34.9409V31.6666C28.2129 31.2972 27.914 30.9968 27.5435 30.9968H23.27V29.7872H28.6565C30.2496 29.7872 31.6655 29.4462 32.8637 28.7738C34.0713 28.0959 35.0247 27.1271 35.6955 25.8945C36.3595 24.6754 36.6963 23.2385 36.6963 21.6257C36.6976 19.998 36.3609 18.557 35.6955 17.3365ZM30.9798 24.2357C30.4281 24.8662 29.7059 25.172 28.7755 25.172H23.2714V18.0387H28.7755C29.7059 18.0387 30.4267 18.3445 30.9798 18.9751C31.5546 19.6313 31.8345 20.4972 31.8345 21.6216C31.8345 22.7257 31.5546 23.5795 30.9798 24.2357Z" fill="#2F2483"/>
</g>
<defs>
<clipPath id="clip0_8_161">
<rect width="49" height="53" fill="white"/>
</clipPath>
</defs>
</svg>
